<?xml version="1.0" encoding="UTF-8" standalone="no"?>
<!-- Created with Inkscape (http://www.inkscape.org/) -->

<svg
   version="1.1"
   id="svg41"
   width="195.84"
   height="152.64"
   viewBox="0 0 195.84 152.64"
   sodipodi:docname="bearuwu.svg"
   inkscape:version="1.1.1 (c3084ef, 2021-09-22)"
   xmlns:inkscape="http://www.inkscape.org/namespaces/inkscape"
   xmlns:sodipodi="http://sodipodi.sourceforge.net/DTD/sodipodi-0.dtd"
   xmlns="http://www.w3.org/2000/svg"
   xmlns:svg="http://www.w3.org/2000/svg">
  <defs
     id="defs45" />
  <sodipodi:namedview
     id="namedview43"
     pagecolor="#ffffff"
     bordercolor="#666666"
     borderopacity="1.0"
     inkscape:pageshadow="2"
     inkscape:pageopacity="0.0"
     inkscape:pagecheckerboard="0"
     showgrid="false"
     inkscape:zoom="0.84723229"
     inkscape:cx="1.7704708"
     inkscape:cy="137.50656"
     inkscape:window-width="1312"
     inkscape:window-height="847"
     inkscape:window-x="0"
     inkscape:window-y="25"
     inkscape:window-maximized="0"
     inkscape:current-layer="g4060" />
  <g
     inkscape:groupmode="layer"
     inkscape:label="Image"
     id="g47">
    <path
       style="fill:none;fill-opacity:0;stroke:#000008;stroke-width:1.63688"
       d=""
       id="path811" />
    <g
       id="g4060"
       transform="translate(30.663649,121.06467)">
      <path
         id="path4076"
         style="fill:#d0d0d0;fill-opacity:1;stroke-width:0.37286"
         d="m 11.813794,-115.2503 c -4.9288043,-0.16406 -7.9875223,0.33254 -11.80831027,1.91633 -7.41347353,3.07303 -12.41413973,7.89251 -15.05145973,14.506808 -0.652521,1.636509 -0.839413,2.962329 -0.866269,6.152297 -0.03095,3.674225 0.06533,4.259682 0.994523,6.072877 1.249919,2.439078 3.847715,5.048376 5.9955394,6.021774 0.8747656,0.396439 1.6572398,0.774188 1.7386867,0.839733 0.081428,0.06555 -0.5579142,0.881255 -1.4215141,1.812748 -6.665381,7.189406 -11.61514,19.118759 -14.712777,35.460099 -0.299925,1.582243 -0.507755,5.789127 -0.515305,10.430375 l -0.01227,7.778585 1.298636,3.712507 c 2.848486,8.142537 7.505223,14.6305198 13.7136524,19.1053173 C 3.5783696,7.5048195 30.838601,16.014386 60.692834,20.263089 c 6.034676,0.858823 10.456662,1.45998 12.974866,1.763716 h 7.84e-4 c 0.649308,0.07822 4.718008,0.09924 9.042846,0.04627 6.26156,-0.07669 8.665255,-0.251516 11.79603,-0.856305 16.82792,-3.250755 31.55485,-11.7553797 39.59272,-22.8647862 4.41888,-6.1074901 9.10348,-16.5255248 11.19241,-24.8895378 0.92346,-3.697514 1.14925,-15.298524 0.38552,-19.81937 -0.50987,-3.018183 -2.77808,-10.686425 -4.00036,-13.52413 -0.23349,-0.54209 -0.006,-0.618507 1.84006,-0.618751 4.60641,-7.08e-4 9.42631,-3.239205 12.00952,-8.068624 1.3278,-2.482394 1.46299,-3.022253 1.62119,-6.474788 0.27979,-6.10659 -1.56866,-11.853923 -4.86817,-15.137993 -1.82184,-1.81332 -5.71888,-4.360326 -8.15277,-5.328437 -4.87056,-1.937341 -11.98031,-2.645845 -16.26178,-1.620776 -4.6517,1.113711 -8.6389,3.997967 -9.62727,6.964403 -0.25301,0.759334 -0.59831,1.380452 -0.76798,1.380452 -0.16967,0 -0.89369,-0.308829 -1.60889,-0.686427 -3.66508,-1.934982 -28.599055,-9.623087 -38.284871,-11.804615 -10.455793,-2.35494 -14.587178,-2.82882 -24.552022,-2.81683 -10.393909,0.0125 -18.087988,0.87162 -24.81774,2.77125 -0.518259,0.14629 -0.684175,-0.20256 -0.895454,-1.8818 -0.560719,-4.45663 -4.123148,-8.69475 -9.178015,-10.91861 -1.927491,-0.84799 -2.847808,-1.01214 -6.319626,-1.1277 z m 102.476446,17.996953 c 0.005,0.03775 0.004,0.07521 0.002,0.113944 0.0188,0.05358 0.0409,0.113187 0.0614,0.171958 0.0897,-0.162048 0.0701,-0.227317 -0.063,-0.285902 z m -62.891404,49.462796 c 1.533407,0.0025 2.984876,0.166122 4.100959,0.506877 5.802087,1.771329 9.816772,6.210161 10.45208,11.556696 0.37388,3.146424 0.0094,5.110209 -1.424584,7.666022 -2.145609,3.824978 -5.491215,6.247954 -10.110328,7.322809 -2.789694,0.649151 -3.991541,0.647932 -6.990841,-0.0055 -3.140363,-0.684435 -5.21658,-1.713552 -7.334889,-3.635852 -3.550649,-3.222251 -5.221378,-7.675773 -4.418131,-11.776308 0.883579,-4.510607 4.104406,-8.422672 8.549819,-10.385489 1.469804,-0.648974 3.544736,-1.061946 5.624617,-1.198828 0.519968,-0.03422 1.040163,-0.05129 1.551298,-0.05041 z m -0.129019,6.832504 c -0.495671,-0.06292 -1.040493,0.150339 -1.621957,0.641539 -1.024293,0.865285 -1.23099,2.049674 -0.476137,2.728445 0.850678,0.764945 2.598603,0.501926 3.32915,-0.500666 0.603833,-0.828691 0.613421,-1.020848 0.09371,-1.853488 -0.383014,-0.613625 -0.829073,-0.952916 -1.324745,-1.01583 z m -10.542699,3.848546 c -0.77879,-0.07767 -1.291919,0.349924 -1.389264,1.254768 -0.06697,0.623025 0.103447,1.498116 0.378612,1.944646 0.275164,0.446532 0.45833,0.943231 0.407027,1.103534 -0.05129,0.160302 0.0953,0.186434 0.326382,0.058 0.231097,-0.128427 0.668003,-0.04844 0.970722,0.177476 0.634431,0.473464 4.596735,1.472603 4.868933,1.227835 0.100161,-0.09006 -0.06839,-0.183535 -0.374776,-0.207861 -0.306366,-0.02432 0.239457,-0.164256 1.212625,-0.310758 1.226692,-0.184668 1.950315,-0.130446 2.359212,0.176786 0.324389,0.243735 1.120618,0.695151 1.769406,1.003398 1.47313,0.699918 4.221873,0.746172 5.623077,0.09461 1.494214,-0.694811 2.530287,-1.815441 2.369953,-2.564087 -0.187502,-0.8755 -1.854311,-1.584133 -2.732439,-1.16154 -1.401252,0.674343 -3.111684,0.373026 -4.385872,-0.77275 -1.19038,-1.0704 -1.298796,-1.095846 -3.607158,-0.841805 -3.895348,0.428692 -4.874601,0.350906 -6.139928,-0.490302 -0.626174,-0.416292 -1.189236,-0.645354 -1.656512,-0.691955 z" />
      <path
         id="path4074"
         style="fill:#b9b9b9;fill-opacity:1;stroke-width:0.37286"
         d="m 10.166501,-115.11771 c -5.0467896,0.009 -5.4631305,0.0651 -8.4538249,1.14359 -6.2378872,2.24942 -11.2706963,5.98601 -14.3602791,10.6624 -2.471186,3.740398 -3.22923,6.232976 -3.236229,10.636855 -0.0069,4.323988 0.801603,6.737584 3.048078,9.097575 1.220063,1.281713 4.2693042,3.378776 5.4103545,3.720794 0.2329484,0.06982 -0.4663029,1.15218 -1.5536126,2.405257 -4.0961859,4.720657 -7.1735759,10.386528 -9.9329269,18.286993 -3.4232,9.801162 -4.666517,16.146712 -5.004861,25.537292 -0.264822,7.349872 0.133916,10.0503 2.270117,15.358978 2.86196,7.112257 6.739145,12.1971252 12.7429398,16.7124912 C 4.4121661,8.4592448 38.02401,18.029924 73.865045,22.012994 c 0.756912,0.08412 4.826547,0.102922 9.043621,0.04144 5.9928,-0.08738 8.526203,-0.27737 11.599431,-0.86943 16.376323,-3.15491 31.335543,-11.7224804 39.234843,-22.4711623 3.51573,-4.7839001 6.12965,-9.8286097 8.70494,-16.7995047 3.27622,-8.86822 3.45818,-10.016922 3.28154,-20.731612 -0.16262,-9.864465 -0.34017,-10.881628 -3.22471,-18.50038 -0.55219,-1.458485 -1.00523,-2.771121 -1.0068,-2.91697 -0.002,-0.145848 0.78667,-0.265178 1.75174,-0.265178 6.03274,0 12.31162,-5.457572 13.62686,-11.844664 1.03314,-5.017116 -0.42198,-12.185037 -3.29382,-16.224261 -2.44831,-3.443521 -8.27126,-6.932781 -13.63762,-8.172214 -10.02562,-2.31554 -19.11069,0.420806 -21.5024,6.476174 l -0.69195,1.751976 -2.18487,-0.997184 c -2.31177,-1.055195 -12.53786,-4.518953 -22.040756,-7.465756 -18.493588,-5.734778 -33.170989,-7.953278 -46.514444,-7.031388 -6.530329,0.45117 -13.901322,1.44787 -16.98751,2.29752 -1.081302,0.29769 -2.074308,0.54275 -2.206378,0.54486 -0.132071,0.002 -0.340373,-0.75364 -0.462317,-1.67946 -0.636867,-4.83542 -4.025047,-8.93722 -9.205664,-11.14373 -2.606547,-1.11018 -2.808748,-1.13883 -7.98228,-1.12978 z m 40.490471,67.180759 c 2.960495,0.0088 4.217254,0.180481 6.003994,0.820396 2.77953,0.995479 6.161494,3.706319 7.706586,6.176462 4.406125,7.044085 1.175936,16.011188 -7.010801,19.463038 -3.434865,1.448263 -8.079625,1.670592 -11.605571,0.555907 -3.140505,-0.99283 -6.166322,-3.095227 -7.84098,-5.449292 -5.184585,-7.287961 -2.277605,-16.583298 6.385676,-20.418785 2.410883,-1.067362 2.912327,-1.158086 6.361096,-1.147726 z m 0.611306,7.07213 c -0.748694,-0.07548 -1.631423,0.311635 -2.166439,1.210571 -0.548024,0.920772 -0.507367,1.284003 0.215793,1.934286 0.339835,0.305589 0.946937,0.555911 1.34856,0.555911 1.074378,0 1.966005,-0.968236 1.966005,-2.134554 0,-0.95288 -0.615226,-1.490726 -1.363919,-1.566214 z m -10.701664,3.861671 c -0.146334,0.02921 -0.297666,0.08695 -0.469997,0.169877 -1.335287,0.642597 -1.094847,2.218241 0.534506,3.504645 1.622506,1.281006 3.365491,1.637969 6.460162,1.323134 1.830203,-0.186195 2.380088,-0.120207 2.800793,0.335617 0.287879,0.311912 1.065885,0.781466 1.729467,1.043452 1.752932,0.692061 3.57964,0.631999 5.338164,-0.174714 2.080722,-0.954517 2.685812,-1.98105 1.693372,-2.873463 -0.629244,-0.56582 -1.018483,-0.621497 -2.555801,-0.363242 -2.068101,0.347424 -3.617057,-0.09384 -4.782158,-1.363182 -0.654891,-0.713491 -0.928515,-0.764833 -2.752399,-0.511715 -3.595727,0.499011 -5.078728,0.383368 -6.401801,-0.499972 -0.763336,-0.509635 -1.155334,-0.678073 -1.594308,-0.590437 z" />
      <path
         id="path4072"
         style="fill:#a3a3a3;fill-opacity:1;stroke-width:0.37286"
         d="m 9.0229854,-115.28621 c -1.929079,0.0154 -3.0444162,0.19855 -4.8205484,0.68367 -6.1701753,1.68525 -11.6313128,4.91195 -14.854087,8.77715 -3.770942,4.52263 -5.285449,8.358627 -5.262132,13.32731 0.01714,3.656332 0.924038,6.393902 2.839956,8.573433 1.337603,1.521647 4.3320698,3.671509 5.6806765,4.078509 0.2667477,0.0805 -0.17388,0.828902 -1.063637,1.806532 -8.7382965,9.60124 -15.5851935,30.145625 -15.5851935,46.764044 0,6.698737 1.351451,11.737952 4.822086,17.977622 4.50926,8.1069595 11.3858619,13.65812239 23.2026926,18.728957 17.4057594,7.469157 38.6515864,12.57979 67.5230444,16.242905 5.123693,0.650078 14.309444,0.670465 18.94506,0.04213 8.274485,-1.121573 14.338877,-2.876326 21.554637,-6.23723 16.26992,-7.5780923 25.09708,-17.7482947 31.42382,-36.203153 2.07024,-6.038847 2.39146,-8.317326 2.39146,-16.970075 0,-8.799931 -0.267,-10.595476 -2.5727,-17.32503 -0.79955,-2.333576 -1.53619,-4.500965 -1.63656,-4.81673 -0.14981,-0.471353 0.22872,-0.602879 2.11193,-0.732004 7.58291,-0.519931 13.50015,-7.400308 13.50015,-15.698046 0,-4.78477 -2.18837,-10.973878 -4.89889,-13.85699 -1.43578,-1.527203 -5.46394,-4.092278 -8.18656,-5.213117 -10.70078,-4.405239 -22.92537,-1.9427 -25.74084,5.185501 l -0.65431,1.657367 -1.98443,-0.903961 c -5.25888,-2.397237 -27.722832,-9.378626 -37.175151,-11.553234 -8.412734,-1.93546 -12.25112,-2.5273 -19.775249,-3.04887 -8.417863,-0.58354 -20.764136,0.35856 -28.101575,2.14422 -1.570295,0.38215 -3.009937,0.69471 -3.198591,0.69471 -0.188654,0 -0.413847,-0.99442 -0.500717,-2.20982 -0.306743,-4.29163 -3.601555,-8.25301 -8.765622,-10.53881 -2.504649,-1.10863 -3.0964,-1.22273 -6.963957,-1.34177 -0.878289,-0.027 -1.6117269,-0.0404 -2.2547626,-0.0352 z M 50.874315,-47.948 c 4.181509,0 4.459771,0.04794 7.014637,1.214021 3.496776,1.595989 6.119987,4.172005 7.523042,7.387721 0.942005,2.158989 1.04567,2.810439 0.923103,5.764883 -0.120498,2.904354 -0.301746,3.630075 -1.419984,5.670963 -2.139809,3.905377 -6.275276,6.78556 -11.024985,7.679143 -2.523277,0.474712 -3.559019,0.460145 -6.369542,-0.09116 -6.244141,-1.224824 -10.996004,-5.745893 -12.201517,-11.609871 -1.188603,-5.781712 2.510751,-12.16879 8.612789,-14.870051 2.446837,-1.083172 2.827244,-1.145655 6.942457,-1.145655 z m -0.08067,7.248226 c -0.607791,0 -1.101961,0.361043 -1.542853,1.127701 -0.626146,1.088801 -0.617814,1.150241 0.230398,1.76786 1.068709,0.778173 1.176795,0.782741 2.277027,0.08978 1.565242,-0.985843 0.919032,-2.985336 -0.964572,-2.985336 z m -10.227057,3.948682 c -0.141082,0.02503 -0.273436,0.07689 -0.410097,0.153306 -1.648096,0.921564 -0.576127,3.060208 2.108079,4.205573 1.164307,0.496818 2.013048,0.572747 4.304472,0.38603 1.964682,-0.160091 2.940553,-0.106538 3.131021,0.17057 0.152172,0.221411 1.00676,0.700451 1.89919,1.06486 2.155283,0.88008 3.252559,0.845405 5.3635,-0.16988 1.456173,-0.700363 1.764031,-1.023702 1.764031,-1.856254 v -1.008232 l -2.846098,-0.0152 c -2.695343,-0.01415 -2.919403,-0.07865 -4.228448,-1.219548 l -1.382349,-1.204355 -2.283178,0.424011 c -3.152001,0.585419 -3.81938,0.541032 -5.590052,-0.371527 -0.908121,-0.468024 -1.406844,-0.63446 -1.830071,-0.559362 z" />
      <path
         id="path4070"
         style="fill:#8c8c8c;fill-opacity:1;stroke-width:0.37286"
         d="m 11.296178,-115.22613 c -4.6945616,-0.17487 -7.4865509,0.40514 -12.4042555,2.57652 -9.8763215,4.36082 -16.1275715,13.901178 -14.6705415,22.388292 0.488662,2.846415 0.963948,4.013423 2.431397,5.969288 0.973853,1.297981 4.6653466,4.058689 5.9364078,4.439677 0.2429332,0.07281 -0.6279121,1.408153 -1.9345107,2.967381 -4.6230641,5.516922 -8.8755641,14.455138 -11.5802311,24.340536 -2.993915,10.942601 -3.933535,22.435202 -2.356901,28.81612 2.617912,10.595179 8.801821,19.0287662 17.9321118,24.45516669 C 10.391203,10.082536 38.087386,17.536469 73.078641,21.834826 c 4.207033,0.516795 13.047565,0.445083 17.386082,-0.140878 7.388205,-0.99785 14.357767,-2.935029 20.439537,-5.681323 5.46737,-2.468833 12.72955,-7.0618195 16.43611,-10.3951554 7.18041,-6.45738841 12.04606,-14.6570739 16.4699,-27.7547116 1.88003,-5.566125 2.08775,-7.386173 1.91915,-16.836106 -0.16666,-9.341773 -0.42866,-10.769989 -3.40364,-18.565986 l -1.09666,-2.872774 2.44291,-0.176786 c 4.55077,-0.328475 9.09464,-3.279659 11.43892,-7.429846 2.95265,-5.227198 2.70592,-12.456514 -0.64662,-18.933367 -4.06981,-7.862515 -18.20753,-12.674905 -28.17685,-9.590639 -4.10953,1.271385 -6.86969,3.616536 -7.97768,6.777944 l -0.46231,1.318991 -1.95372,-0.890143 c -1.07448,-0.489605 -5.08763,-1.934235 -8.91767,-3.210466 -23.405619,-7.79912 -35.463446,-10.63491 -48.543422,-11.41581 -8.818665,-0.5265 -20.177269,0.34493 -27.576289,2.11521 -1.539661,0.36838 -2.996278,0.67358 -3.236991,0.67814 -0.256631,0.005 -0.521971,-0.93425 -0.64126,-2.2706 -0.283033,-3.1706 -2.154026,-6.18385 -5.2268,-8.41873 -3.254344,-2.36694 -5.82626,-3.19551 -10.45516,-3.36792 z m -0.518372,3.9107 c 6.604569,0.0593 11.774757,3.59316 12.285222,8.99951 0.119912,1.26996 -0.03013,2.23862 -0.479216,3.089608 -0.679754,1.28811 -0.411269,2.430235 0.64586,2.747096 0.269648,0.08081 2.173892,-0.2097 4.231518,-0.646374 14.983719,-3.17986 28.034062,-3.60498 41.633986,-1.356282 6.144075,1.015905 17.087293,3.741741 24.823116,6.184064 17.177788,5.423289 19.161098,6.129762 23.200398,8.258527 4.03671,2.127414 5.05492,1.765874 4.97183,-1.763026 -0.0517,-2.195538 0.0754,-2.67913 1.05136,-4.008761 3.40768,-4.642424 14.10183,-4.767949 21.85798,-0.256202 3.28568,1.911272 4.95009,3.782779 6.26126,7.040365 0.87898,2.183852 1.02791,3.134809 1.03676,6.616355 0.01,3.775153 -0.0689,4.205217 -1.09897,6.010726 -2.22461,3.899138 -4.21603,5.105077 -9.97132,6.038345 -2.3154,0.375461 -4.34999,0.880635 -4.52105,1.122867 -0.63201,0.894962 -0.28727,3.019975 1.06441,6.559041 0.76318,1.998223 1.86444,5.337512 2.44675,7.420175 0.99182,3.547216 1.05693,4.267102 1.03369,11.388199 -0.0145,4.460166 -0.22558,8.551595 -0.5107,9.900017 -1.47447,6.973115 -8.25081,21.8215073 -11.16246,24.4593104 -0.69048,0.6255531 -0.98944,0.9990356 -0.66505,0.8300663 0.47923,-0.2496218 0.47064,-0.1799253 -0.043,0.3722162 -0.34769,0.37374 -1.0551,1.1568455 -1.57203,1.74023939 -0.98148,1.1076879 -5.71499,5.38223241 -6.67981,6.03212961 C 111.52546,11.587696 103.57954,14.922783 93.730156,16.747395 88.852892,17.650916 79.406533,18.228596 76.617472,17.7943 76.076816,17.71012 74.042004,17.468529 72.095657,17.257037 51.890465,15.061528 28.947081,10.089332 14.295138,4.7307782 6.2672703,1.7948043 1.3060838,-0.43919501 1.8094734,-0.89184441 1.9593123,-1.0265804 1.8216592,-1.0496406 1.503816,-0.94294721 0.77801083,-0.69927231 -4.1162006,-3.4571697 -3.7928784,-3.9275939 c 0.1314845,-0.1912961 -0.015964,-0.2584679 -0.3286877,-0.1505437 -0.6585657,0.2272479 -6.2062699,-4.5916607 -8.0291329,-6.9740704 -2.469314,-3.227299 -4.8396,-8.037162 -6.305803,-12.79696 -0.892058,-2.895939 -0.855982,-12.873695 0.06758,-18.618467 0.91453,-5.688602 3.410923,-14.753338 5.04787,-18.331882 0.235877,-0.515654 0.488969,-1.217621 0.562922,-1.559307 0.487148,-2.250849 5.34233,-10.869578 6.1230283,-10.869578 0.2409778,0 0.3251736,-0.101228 0.1873883,-0.225127 -0.5238599,-0.47106 2.8995461,-4.245431 4.2929571,-4.73317 0.4570172,-0.159973 0.9320297,-0.639431 1.0559571,-1.065549 0.25087766,-0.862659 -0.9608884,-2.051734 -4.0495138,-3.972162 -4.4037634,-2.738139 -5.752882,-4.557532 -6.137617,-8.279939 -0.854253,-8.265073 6.8872838,-16.880411 17.3215763,-19.277271 1.6372039,-0.37608 3.2380486,-0.54749 4.7621887,-0.53381 z m 3.005837,51.518623 c -1.279818,-0.03551 -2.715171,0.374136 -3.336839,1.125628 -1.5060213,1.82051 -0.7152154,5.155699 1.413069,5.959622 1.118474,0.422484 2.98002,0.136119 3.881321,-0.597341 1.62856,-1.32527 1.611727,-4.585087 -0.0307,-5.921643 -0.447089,-0.363836 -1.158951,-0.54496 -1.92684,-0.566266 z m 92.335397,18.074987 c -0.25237,3.54e-4 -0.54657,0.02779 -0.91158,0.07182 -2.09935,0.253203 -3.03195,1.245277 -3.03195,3.225651 0,1.484296 0.84777,2.614408 2.35921,3.144861 1.09157,0.383096 2.94237,-0.109172 3.8337,-1.019974 1.31187,-1.340519 1.18659,-3.122705 -0.31409,-4.472135 -0.79635,-0.716086 -1.1782,-0.951543 -1.93529,-0.950223 z m -54.836168,1.079364 c -1.374423,-0.243013 -2.888012,2.025738 -1.927605,2.889345 0.144171,0.129644 0.767275,0.235485 1.384654,0.235485 2.063435,0 2.544909,-2.770865 0.542951,-3.12483 z m -10.581099,3.921747 c -0.483627,0.01163 -0.877647,0.247639 -1.200336,0.708527 -0.661324,0.944563 0.431965,2.412464 2.517401,3.379649 1.529874,0.709521 2.120785,0.788908 4.423516,0.596654 2.242124,-0.187196 2.826299,-0.115891 3.735412,0.456467 0.592705,0.373154 1.609044,0.848351 2.257832,1.055191 1.691946,0.539413 1.99545,0.515646 4.158554,-0.321114 1.328136,-0.513766 2.019009,-1.012531 2.174893,-1.571048 0.394435,-1.41315 -0.119251,-1.674044 -2.803854,-1.426717 -2.399595,0.221068 -2.497526,0.196017 -4.150118,-1.045526 -1.310575,-0.984603 -1.919377,-1.224278 -2.698649,-1.061405 -0.553503,0.115688 -2.007956,0.309029 -3.232381,0.428844 -1.900824,0.186006 -2.404082,0.103663 -3.442818,-0.561434 -0.682059,-0.436722 -1.255824,-0.649721 -1.739452,-0.638088 z" />
      <path
         id="path4068"
         style="fill:#767676;fill-opacity:1;stroke-width:0.37286"
         d="m 10.41839,-115.30347 c -9.201348,0 -19.2353396,5.51773 -23.514487,12.93093 -1.720949,2.981368 -2.172745,4.224988 -2.651035,7.302778 -0.982479,6.322227 1.841671,12.050902 7.1213871,14.445351 0.9280811,0.4209 1.7644187,0.827752 1.8584954,0.904647 0.094086,0.0769 -0.463299,0.733502 -1.2387356,1.459176 -5.5193489,5.165084 -11.6681969,18.630182 -14.2458579,31.196518 -1.776069,8.658502 -2.267841,18.066318 -1.186515,22.688689 2.012167,8.601439 6.364279,15.8831447 12.656925,21.176341 9.2765781,7.8032111 28.712068,15.046035 54.763206,20.408426 8.447515,1.738842 13.84709,2.592394 29.293467,4.630273 3.874689,0.511198 12.481668,0.436673 16.811646,-0.145017 13.247644,-1.779697 23.392624,-5.795937 34.192354,-13.5372523 8.71181,-6.2446832 15.97838,-18.038516 20.41035,-33.1252797 0.87104,-2.96508 0.93463,-3.813893 0.93463,-12.549736 0,-6.723009 -0.15151,-9.918964 -0.53605,-11.314305 -0.69782,-2.53213 -2.58409,-8.263186 -3.33223,-10.125143 l -0.58749,-1.461939 2.2801,-0.148472 c 2.73686,-0.178016 6.70189,-1.819811 8.53907,-3.53572 4.89995,-4.576516 6.38721,-11.529281 4.05795,-18.97273 -1.09115,-3.486914 -2.07389,-5.12569 -4.40508,-7.342142 -4.00374,-3.806721 -9.24607,-6.09256 -15.74339,-6.864272 -8.31242,-0.987313 -15.81548,2.217099 -17.57808,7.507195 -0.24612,0.738708 -0.51884,1.343155 -0.60593,1.343155 -0.0871,0 -0.75493,-0.316628 -1.48448,-0.703693 -1.31881,-0.699688 -10.41491,-3.80674 -20.934119,-7.150852 -11.12064,-3.535328 -23.050912,-6.286186 -31.217227,-7.197126 -10.644522,-1.18739 -27.871886,-0.12695 -35.076291,2.15872 -0.897995,0.2849 -1.678324,0.51793 -1.734077,0.51793 -0.05573,0 -0.174334,-0.99442 -0.263413,-2.20982 -0.512808,-6.99655 -7.653497,-12.28663 -16.585093,-12.28663 z m 0.116738,3.90172 c 5.258824,-0.0353 9.73455,2.01165 11.694651,5.86156 1.072819,2.10718 1.399929,5.49701 0.599781,6.216518 -0.260683,0.23441 -0.473832,0.86865 -0.473832,1.40945 0,1.479846 1.14891,1.534468 6.941682,0.330782 8.265974,-1.717582 13.885103,-2.270732 23.138188,-2.276802 9.714817,-0.007 14.050632,0.49248 24.002912,2.760203 8.022994,1.828117 14.44229,3.599557 20.821986,5.745547 2.595126,0.872944 7.146804,2.342988 10.115714,3.267087 3.11662,0.970067 6.91937,2.469647 8.99754,3.54815 3.07739,1.597061 3.74865,1.81931 4.62856,1.534449 0.96993,-0.314005 1.02223,-0.449908 0.90697,-2.367277 -0.1617,-2.68989 0.43288,-4.164418 2.28394,-5.668203 1.94604,-1.58093 4.79305,-2.34172 8.76486,-2.34172 5.54231,0 10.49961,1.658715 14.41173,4.821561 3.7114,3.00056 5.34451,7.259871 5.05631,13.187131 -0.128,2.632733 -0.36515,3.735103 -1.07054,4.97349 -2.2514,3.952543 -4.45547,5.283359 -10.24704,6.186817 -2.05088,0.31993 -3.95299,0.748572 -4.2269,0.95299 -0.82552,0.616063 -0.57057,2.449084 0.85552,6.145386 3.04458,7.891317 3.45855,9.908475 3.65707,17.829146 0.22276,8.887528 -0.21836,11.570446 -3.2439,19.730978 -2.42456,6.539519 -5.07832,11.7291997 -8.02069,15.6849212 C 121.96955,7.1008529 106.71622,15.246824 90.20746,17.451084 86.593208,17.93366 78.436661,18.102796 75.241245,17.761152 38.203907,13.801241 4.6122693,4.0598752 -7.4722537,-6.2251214 -12.39248,-10.412679 -15.068545,-14.353028 -17.637873,-21.192543 c -1.283208,-3.415884 -1.435337,-4.229843 -1.601221,-8.597599 -0.511138,-13.458377 4.244269,-31.356957 11.11791,-41.847185 2.5429159,-3.880873 4.2118219,-5.831863 5.6207723,-6.570087 2.01709114,-1.056856 1.4855608,-1.965065 -2.925193,-4.996277 -4.8522033,-3.334584 -5.7479323,-4.661158 -5.9709753,-8.844138 -0.354675,-6.651653 4.4103912,-13.397601 11.99416447,-16.981121 3.34532193,-1.58074 6.78224573,-2.35161 9.93754353,-2.3728 z m 2.776979,51.609086 c -0.846369,0 -1.605492,0.328409 -2.389922,1.033785 -1.5509579,1.39464 -1.63897,3.861569 -0.184318,5.169608 1.341201,1.206031 3.806505,1.206031 5.147706,0 1.454652,-1.308039 1.366649,-3.774968 -0.184309,-5.169608 -0.784439,-0.705376 -1.542797,-1.033785 -2.389157,-1.033785 z m 92.401443,18.224843 c -1.32399,0 -1.84485,0.197466 -2.59727,0.984061 -1.27159,1.329322 -1.26122,3.163746 0.0238,4.31952 1.07024,0.962373 3.46611,1.179937 4.57404,0.415033 1.72261,-1.189286 1.98673,-3.282237 0.59748,-4.734553 -0.75243,-0.786595 -1.27405,-0.984061 -2.59804,-0.984061 z m -54.74324,0.932271 c -1.02691,0.133175 -2.114305,1.698934 -1.758657,2.532321 0.377129,0.883732 2.497271,0.768054 3.053457,-0.16643 0.649062,-1.090557 -0.131353,-2.516775 -1.2948,-2.365891 z m -10.267772,3.861668 c -0.440193,-0.01135 -0.769844,0.20592 -1.034457,0.650518 -1.372865,2.306701 3.716358,4.932288 7.661281,3.952822 1.194272,-0.296519 1.660594,-0.274937 2.137259,0.09807 0.335319,0.262392 1.140588,0.728987 1.789376,1.037236 2.795513,1.32821 7.470813,0.139533 7.470813,-1.899761 0,-0.842088 -0.08899,-0.870116 -2.781588,-0.870116 -2.590611,0 -2.883809,-0.08051 -4.277598,-1.178112 -1.089888,-0.858286 -1.723411,-1.11749 -2.330787,-0.952991 -0.458651,0.124221 -1.950201,0.319033 -3.31533,0.432988 -2.138864,0.178543 -2.64011,0.102922 -3.621752,-0.549691 -0.706383,-0.469618 -1.257024,-0.709615 -1.697217,-0.720957 z" />
      <path
         id="path4066"
         style="fill:#606060;fill-opacity:1;stroke-width:0.37286"
         d="m 10.466774,-115.32212 c -3.5786198,-0.005 -7.4244974,0.86797 -11.38669801,2.6297 -8.58121929,3.81549 -14.05617999,10.71583 -14.98694499,18.889166 -0.231109,2.029411 0.625193,6.315378 1.608128,8.047905 0.964271,1.699631 4.5337406,4.783123 6.279701,5.425121 1.5429854,0.567363 1.5652034,0.726255 0.258038,1.825178 -1.6001173,1.345197 -5.228262,6.502123 -7.051511,10.02363 -2.110215,4.075769 -5.319163,12.926204 -6.672128,18.400245 -1.744986,7.060134 -2.300607,11.513671 -2.31543,18.574275 -0.01298,6.169517 0.04859,6.721842 1.078232,9.723231 2.797915,8.155909 5.546138,12.6162127 10.672487,17.3236462 C -7.9934402,-0.73555151 -3.9621297,1.7668298 3.0520159,4.91378 14.65242,10.118392 31.94947,15.085913 49.68319,18.306011 c 5.235878,0.95073 21.36283,3.287364 25.558055,3.70284 3.108859,0.307883 13.830228,-0.08977 17.147248,-0.636016 10.981117,-1.808348 20.455737,-5.528102 29.420957,-11.5504815 5.98556,-4.0208037 10.05665,-8.2326067 14.11836,-14.604873 3.12094,-4.8963248 6.09361,-11.7003235 8.43155,-19.2993685 l 1.25103,-4.066078 0.007,-9.546445 0.007,-9.546446 -1.26254,-4.066078 c -0.69427,-2.236342 -1.69341,-5.199213 -2.2202,-6.5839 l -0.95766,-2.517129 2.34,-0.191286 c 7.70103,-0.627926 13.72518,-7.553731 13.69062,-15.740172 -0.0119,-2.813351 -1.3108,-7.802049 -2.72629,-10.469046 -3.69386,-6.959728 -16.26762,-12.073764 -25.42828,-10.341985 -5.24118,0.990821 -8.53185,3.099776 -10.29388,6.597019 -0.53887,1.069559 -1.01573,1.987668 -1.0598,2.039948 -0.044,0.05228 -1.30061,-0.443691 -2.79234,-1.101459 -1.49173,-0.657768 -3.41946,-1.396683 -4.28451,-1.642178 -0.86503,-0.245506 -4.75773,-1.523634 -8.65042,-2.840311 -20.764348,-7.023306 -35.003049,-9.899776 -48.92895,-9.884826 -9.30882,0.01 -20.435487,1.33908 -25.318457,3.02401 -0.4213,0.14537 -0.593933,-0.34427 -0.753379,-2.13041 -0.27149,-3.04137 -1.698048,-5.62057 -4.358997,-7.88355 -3.392913,-2.88547 -7.551278,-4.34326 -12.152367,-4.34991 z m 0.738785,3.94454 c 2.227509,0.083 4.377889,0.42793 5.564717,0.97854 5.14491,2.38691 7.727378,7.02799 6.131473,11.018738 -0.650498,1.62666 -0.655628,1.808797 -0.06754,2.337579 0.588058,0.528783 1.075521,0.485988 6.272017,-0.551069 3.099074,-0.61848 6.02199,-1.19707 6.494726,-1.28585 2.861666,-0.5374 12.111946,-1.213958 16.640383,-1.216778 14.262109,-0.009 26.523166,2.592682 53.276425,11.304634 3.67643,1.197194 8.48135,3.041534 10.67786,4.098535 5.23841,2.520823 6.1066,2.325927 5.74211,-1.288605 -0.17755,-1.760792 -0.065,-2.269114 0.7987,-3.594422 2.05678,-3.155923 7.69079,-4.70909 13.451,-3.709047 4.54915,0.789781 7.10821,1.765177 10.22322,3.898268 3.05209,2.089995 4.75649,4.547316 5.65227,8.146657 0.58549,2.352577 0.6289,7.489653 0.0783,9.328224 -0.60213,2.010803 -2.53238,4.527027 -4.41045,5.750383 -1.8611,1.212291 -2.21973,1.316964 -7.20971,2.101405 -4.87763,0.766774 -4.87642,0.763387 -2.27857,8.23436 2.6701,7.678737 2.87091,8.541629 3.24084,13.888752 0.6414,9.271087 -0.39186,15.442839 -4.14858,24.780425 -5.91348,14.6983502 -13.73738,22.8068706 -28.27821,29.305047 -5.46617,2.442781 -9.44538,3.708306 -15.247287,4.849184 -2.712564,0.533392 -5.509758,0.746752 -11.097175,0.84595 -6.686752,0.118715 -8.254884,0.02598 -14.941636,-0.881169 C 44.608986,13.82002 26.262431,9.5482998 11.149504,3.777792 -6.1647388,-2.8332347 -13.158564,-8.8162783 -17.641715,-20.852782 c -1.300343,-3.491208 -1.413738,-4.145982 -1.5897,-9.172157 -0.356606,-10.186223 1.684767,-20.775977 6.282769,-32.596301 2.439543,-6.271452 7.9991968,-14.555963 10.5711132,-15.751912 1.94141593,-0.902764 1.47484848,-1.654591 -2.8852631,-4.65099 -4.5232227,-3.1085 -5.6891131,-4.579185 -6.1875421,-7.804133 -0.839992,-5.4349 2.4976813,-12.144575 7.8970393,-15.876905 2.75785943,-1.90639 7.0541417,-3.81225 9.8377047,-4.36372 0.8054668,-0.15957 1.7317436,-0.25886 2.7009543,-0.30246 0.726901,-0.0327 1.4777017,-0.0339 2.2201987,-0.006 z m 2.106548,51.584916 c -0.846369,0 -1.605492,0.328409 -2.389922,1.033785 -1.5382241,1.383188 -1.5914074,3.389685 -0.131324,4.950008 0.809746,0.865351 1.325737,1.087648 2.521246,1.087648 2.020095,0 3.538803,-1.540924 3.538803,-3.590277 0,-1.829052 -1.679589,-3.481164 -3.538803,-3.481164 z m 92.396833,18.293209 c -1.2966,0.0074 -2.45556,0.613119 -3.01044,1.659442 -0.74354,1.40204 -0.48706,2.703274 0.73495,3.727005 1.69588,1.420717 5.01041,0.487082 5.58544,-1.573119 0.37131,-1.330312 -0.66071,-3.210275 -1.98443,-3.615132 -0.44552,-0.136264 -0.89331,-0.20066 -1.32552,-0.198196 z m -54.865345,0.799681 c -0.830631,0 -1.856596,1.61673 -1.559752,2.45774 0.346456,0.981569 1.951183,0.945465 2.735509,-0.06146 0.336651,-0.432195 0.612845,-0.897857 0.612845,-1.035163 0,-0.436623 -1.214798,-1.361115 -1.788602,-1.361115 z m -10.086532,3.914152 c -0.435668,0.06323 -0.873528,0.300933 -1.100497,0.682285 -1.306948,2.195926 3.504655,4.729807 7.463133,3.930035 1.470862,-0.297175 1.883935,-0.247614 2.791574,0.333545 0.585847,0.375115 1.482094,0.831726 1.99135,1.015141 3.056602,1.100843 8.202569,-0.919977 6.643714,-2.608976 -0.422821,-0.458116 -0.967983,-0.526356 -2.747799,-0.345284 -1.979523,0.201383 -2.347092,0.131549 -3.382144,-0.639471 -2.064465,-1.537844 -2.437079,-1.617433 -5.156151,-1.104913 -2.142048,0.403751 -2.728538,0.400944 -3.83832,-0.01588 -0.720582,-0.270737 -1.430885,-0.667551 -1.578174,-0.881858 -0.217739,-0.316804 -0.651008,-0.427857 -1.086686,-0.364621 z" />
      <path
         id="path4064"
         style="fill:#494949;fill-opacity:1;stroke-width:0.37286"
         d="m 10.897606,-115.28344 c -3.7219221,-0.0627 -7.7450615,0.82205 -11.83903003,2.67596 -9.23705497,4.18287 -14.84333697,11.72584 -14.84333697,19.969905 0,5.361734 2.467068,9.533688 7.0246221,11.879193 1.002207,0.515774 1.8883649,0.982372 1.969075,1.036547 0.080672,0.05418 -0.60201,0.861258 -1.5167338,1.793412 -0.9147333,0.932153 -2.6148223,3.146235 -3.7776513,4.920312 -8.892486,13.566856 -14.258813,38.645345 -10.802274,50.482078 3.724458,12.7542057 11.180467,20.7434665 25.3315131,27.1435585 C 16.589377,11.01515 38.622903,16.882264 59.906412,19.919184 c 2.162603,0.308579 4.905178,0.707451 6.094613,0.886694 1.189435,0.179244 3.755069,0.495444 5.701416,0.702307 1.946347,0.206861 3.98116,0.433876 4.521806,0.50412 2.598565,0.337531 9.56903,0.167084 13.318148,-0.325261 10.974275,-1.441174 19.560035,-4.318116 28.389575,-9.513298 7.88949,-4.6420762 12.183,-8.5578971 16.95141,-15.4611785 2.79854,-4.0514796 4.74898,-7.9671625 7.19588,-14.4460415 3.41801,-9.050182 3.5462,-9.779827 3.53574,-20.137723 -0.008,-8.638055 -0.0533,-9.164336 -1.05904,-12.551808 -0.92509,-3.115716 -2.52799,-7.759768 -3.24697,-9.40764 -0.20562,-0.471264 0.14579,-0.599746 2.0643,-0.756176 4.71273,-0.384267 9.18524,-3.230744 11.46964,-7.300018 2.57136,-4.580445 2.97362,-8.449863 1.44379,-13.87287 -1.33282,-4.724556 -2.37659,-6.516451 -5.33049,-9.147983 -3.94961,-3.518577 -8.34944,-5.351796 -15.27493,-6.365681 -4.93423,-0.722369 -10.69527,0.608337 -14.01853,3.23878 -1.77398,1.404135 -3.36602,3.619465 -3.36602,4.68344 0,0.972289 -0.74642,0.947797 -3.05806,-0.101508 -1.26635,-0.574822 -4.05991,-1.599137 -6.20827,-2.276125 -2.14836,-0.676989 -6.52245,-2.117578 -9.720205,-3.201481 -5.478245,-1.856883 -15.310281,-4.634415 -21.906357,-6.188193 -8.270575,-1.94824 -16.012443,-2.86406 -24.243295,-2.86795 -8.466332,-0.004 -19.128689,1.1901 -23.766384,2.66146 -0.898003,0.2849 -1.762132,0.51793 -1.919925,0.51793 -0.157802,0 -0.39076,-0.99929 -0.517616,-2.22087 -0.306404,-2.9505 -1.424603,-5.18008 -3.690871,-7.35872 -3.296333,-3.16888 -7.582839,-4.81615 -12.368161,-4.89683 z m -0.132089,3.78846 c 3.025532,-0.0132 3.865667,0.11969 5.706016,0.90257 1.187026,0.50497 2.904307,1.58179 3.816046,2.39353 2.737455,2.43719 4.015403,6.67087 2.657945,8.806148 -1.392873,2.191019 -0.293084,2.993208 3.159436,2.304432 7.939496,-1.583912 10.336578,-1.979302 14.927806,-2.464652 6.373112,-0.673688 16.775022,-0.690908 22.21585,-0.0366 8.713923,1.04794 20.442902,3.752688 31.259481,7.208168 16.030753,5.121218 18.977213,6.148317 21.892533,7.633567 1.74799,0.890532 3.5886,1.619388 4.09022,1.619388 1.16916,0 1.76987,-0.938548 1.30477,-2.038564 -0.46233,-1.093463 -0.0571,-3.288571 0.85629,-4.639248 1.44185,-2.13199 6.04093,-3.929345 10.05351,-3.929345 4.76405,0 11.19025,2.167805 14.83872,5.005943 4.81385,3.744686 6.78064,12.74103 3.9873,18.23796 -1.97524,3.887005 -4.48175,5.474905 -9.97286,6.318722 -1.87308,0.287832 -3.71483,0.606397 -4.09329,0.707834 -1.0671,0.286015 -0.87357,2.925946 0.47384,6.458905 3.1143,8.165785 4.21637,14.864734 3.7308,22.670734 -0.33927,5.454246 -1.11489,8.812122 -3.48965,15.100012 C 133.59566,-7.0963177 128.11877,0.59403689 120.19595,6.0173298 111.19109,12.181272 101.52591,15.994907 91.350201,17.400002 83.411366,18.496224 78.140649,18.39448 67.180626,16.933866 33.148002,12.398425 4.0885795,3.5214117 -7.4031343,-5.8508102 -13.785401,-11.05597 -18.159482,-19.026877 -19.347377,-27.614827 c -0.746646,-5.397903 0.590096,-16.664419 2.978956,-25.106376 1.31403,-4.643631 3.862861,-11.47302 5.435697,-14.564131 2.5244826,-4.96139 6.5308924,-10.224719 8.3509126,-10.9704 1.0485606,-0.429563 1.4754342,-1.190415 1.0505821,-1.872137 -0.1625349,-0.260816 -1.8485011,-1.527264 -3.7469265,-2.814765 -4.3270019,-2.934546 -5.5730512,-4.439245 -6.1522122,-7.429844 -0.779281,-4.023951 0.604397,-8.729982 3.6670611,-12.47101 4.3947799,-5.36821 11.3602765,-8.62021 18.5288239,-8.65147 z m 2.432156,51.840428 c -2.961741,0.088 -4.7718894,4.236642 -1.98059,6.210992 0.561769,0.397355 1.504567,0.722337 2.095024,0.722337 3.776551,0 4.75329,-5.386418 1.215696,-6.704058 -0.460031,-0.171345 -0.907016,-0.24184 -1.33013,-0.229271 z m 92.332337,18.247635 c -0.99998,0 -1.57353,0.27219 -2.3715,1.124938 -1.27745,1.365149 -1.12458,2.872204 0.41471,4.090249 1.33769,1.058513 3.09652,1.028891 4.32137,-0.0725 2.18176,-1.961873 0.71901,-5.142678 -2.36458,-5.142678 z m -54.346977,0.835589 c -0.225618,-0.05866 -0.462231,0.0092 -0.811739,0.177475 -1.060794,0.510502 -1.486033,1.694897 -0.853983,2.379706 0.650593,0.704917 1.909959,0.497823 2.58806,-0.425389 0.479254,-0.652492 0.457697,-0.844369 -0.177404,-1.549643 -0.304627,-0.338279 -0.519306,-0.523488 -0.744934,-0.582149 z m -10.652514,3.934871 c -1.164846,0.151057 -1.338782,1.886926 0.335603,3.153835 1.573658,1.190689 2.622634,1.401687 5.803551,1.168442 1.891047,-0.13866 2.784592,-0.05985 3.21088,0.283138 0.324881,0.261388 1.121109,0.723602 1.769407,1.027567 1.609006,0.754404 3.460974,0.697178 5.342008,-0.165736 1.770758,-0.812324 2.246186,-1.514618 1.542079,-2.277503 -0.366256,-0.396834 -1.017227,-0.465845 -2.806933,-0.297636 -2.21506,0.208186 -2.410308,0.161062 -3.951971,-0.952986 l -1.621957,-1.172591 -2.820754,0.426776 c -2.951217,0.445904 -3.683116,0.343955 -5.338164,-0.740294 -0.576712,-0.377807 -1.075473,-0.503374 -1.463749,-0.453012 z" />
      <path
         id="path4062"
         style="fill:#333333;fill-opacity:1;stroke-width:0.37286"
         d="m 11.263163,-115.27447 c -7.7472247,-0.16685 -17.386262,4.02324 -22.069171,9.96286 -3.521095,4.46601 -4.978753,8.188232 -4.978753,12.712022 0,5.452597 2.825298,9.989566 7.5737228,12.160941 0.6999315,0.320064 1.3295817,0.626788 1.3992395,0.680902 0.069714,0.05412 -0.7318037,1.056925 -1.7816867,2.22847 -4.9082606,5.477209 -9.1387256,14.236174 -12.2929046,25.451663 -1.207264,4.292736 -1.535272,5.97932 -2.385317,12.261769 -1.034819,7.648052 -0.993309,11.468646 0.176633,16.087527 2.648751,10.45719 8.148024,18.2055119 16.8070313,23.68172789 C 8.4819141,9.2943643 37.903474,17.412824 71.88215,21.522689 c 9.301611,1.125069 16.798969,0.752483 25.767708,-1.280316 11.116592,-2.519618 22.032112,-8.011886 29.706632,-14.9467069 7.0583,-6.3779906 11.82104,-14.2718504 15.88548,-26.3293781 2.00094,-5.936004 2.575,-9.652095 2.575,-16.660699 0,-7.937233 -1.11222,-13.646226 -4.09251,-21.004389 -0.34703,-0.856807 -0.55386,-1.626845 -0.46001,-1.711235 0.0939,-0.08439 1.06259,-0.207116 2.15262,-0.272775 6.03518,-0.363539 11.53966,-5.1817 13.21369,-11.566363 0.78661,-3.000079 0.73905,-4.986009 -0.21041,-8.849659 -0.93808,-3.817246 -2.48667,-7.004156 -4.31293,-8.87452 -1.45858,-1.493806 -5.23654,-3.996414 -7.75957,-5.139913 -5.00439,-2.268124 -13.91927,-2.790547 -18.76536,-1.100085 -2.88814,1.007474 -6.15918,3.794873 -6.8649,5.849826 -0.26466,0.77068 -0.54765,1.593328 -0.62896,1.827939 -0.1023,0.295204 -0.66822,0.167163 -1.83776,-0.415722 -1.88387,-0.938922 -1.57502,-0.829422 -13.28896,-4.737315 -13.994971,-4.66888 -25.73521,-7.729628 -35.584676,-9.277808 -4.341096,-0.68236 -6.474841,-0.80204 -14.155241,-0.79278 -9.799249,0.0118 -15.340048,0.53586 -22.188201,2.09795 -2.060129,0.46993 -3.769399,0.85424 -3.798381,0.85424 -0.029,0 -0.150595,-0.97137 -0.270328,-2.15872 -0.563091,-5.584 -5.775155,-10.56496 -12.517915,-11.96276 -1.009565,-0.20927 -2.077264,-0.32213 -3.184005,-0.34597 z m -0.341752,3.56404 c 0.520667,0.006 1.034844,0.0343 1.539783,0.0877 4.481913,0.47368 8.017023,2.59975 9.870729,5.93546 1.376984,2.47788 1.624555,5.24245 0.588266,6.572838 -0.65321,0.83861 -0.447231,2.169285 0.346352,2.236078 1.091173,0.09182 2.653411,-0.142386 6.166803,-0.923988 4.673751,-1.03973 10.495297,-1.82022 17.119599,-2.294768 5.612658,-0.40206 13.661818,-0.0447 20.234486,0.897748 7.883149,1.13037 21.71861,4.64454 32.230184,8.186712 3.129267,1.054488 7.464307,2.472585 9.633427,3.151072 2.16912,0.678487 5.58981,2.030759 7.60137,3.005362 2.0406,0.988669 4.03951,1.723221 4.52181,1.661513 0.77192,-0.09876 0.85366,-0.295014 0.76414,-1.834155 -0.29699,-5.10551 3.21572,-8.151558 9.92678,-8.607963 8.16633,-0.555366 17.46772,3.915463 19.78292,9.509157 2.02649,4.896145 2.13013,10.5246 0.25727,13.966786 -2.09743,3.854929 -4.7507,5.421331 -10.40293,6.141932 -1.83821,0.234355 -3.56338,0.584596 -3.83371,0.778272 -0.81348,0.582825 -0.56029,2.742153 0.71576,6.102572 0.66401,1.748669 1.74755,5.009123 2.40835,7.245465 1.17433,3.974326 1.20153,4.249586 1.19957,12.198236 -0.002,7.898771 -0.0362,8.24885 -1.18421,12.198235 -2.65672,9.139526 -6.82301,17.7156877 -11.35675,23.377878 -6.86009,8.5675571 -20.21738,16.120556 -33.348352,18.857395 -1.306268,0.272257 -4.371532,0.745128 -6.811898,1.05105 -6.363033,0.797661 -9.303369,0.716184 -19.547921,-0.54348 C 39.40429,13.565409 12.133177,6.1249975 -2.464317,-2.3448065 -12.243192,-8.0187393 -18.895386,-18.520349 -19.592361,-29.385469 c -0.251889,-3.92671 0.680556,-13.130116 1.850042,-18.262826 1.671292,-7.335074 4.820926,-16.255969 7.327973,-20.755092 2.7182314,-4.878106 6.0569125,-9.041343 8.4392301,-10.524292 0.8240194,-0.512938 0.8598024,-0.637398 0.3448221,-1.195377 -0.3161806,-0.342577 -1.9935884,-1.581137 -3.7277313,-2.751924 -3.6560427,-2.468339 -4.3238847,-3.101042 -5.3043749,-5.026661 -1.689839,-3.318733 -1.335502,-7.771926 0.964573,-12.127109 3.4762681,-6.58228 12.8093174,-11.76328 20.619238,-11.68168 z m 2.368422,52.118029 c -0.351218,0.0087 -0.717181,0.06825 -1.092052,0.185763 -1.204691,0.37763 -2.437787,2.106293 -2.410657,3.379654 0.021065,0.988464 0.942657,2.287424 1.995185,2.812002 1.856521,0.925286 3.6839,0.313095 4.535635,-1.519943 1.155711,-2.487249 -0.56958,-4.918364 -3.028111,-4.857476 z m 92.492837,18.206199 c -2.19174,-0.05216 -4.26754,2.048405 -3.02581,4.207646 0.32898,0.572047 0.90713,1.20226 1.28559,1.400477 0.96575,0.505809 1.92407,0.465516 3.21626,-0.135351 1.90977,-0.888046 2.22693,-3.194746 0.63588,-4.62544 -0.63767,-0.573399 -1.38134,-0.829944 -2.11192,-0.847332 z m -54.745546,1.111818 c -1.30691,-0.136879 -2.357558,1.352053 -1.562058,2.213969 0.612647,0.663789 1.214279,0.686672 2.135729,0.0808 1.057279,-0.695183 0.690504,-2.162358 -0.573671,-2.294767 z m -10.240887,3.675215 c -0.741637,-0.0981 -1.139671,0.308035 -1.139671,1.209192 0,1.242891 1.819775,2.699512 3.788396,3.031601 0.773623,0.13051 2.441037,0.139912 3.705457,0.02142 1.477531,-0.138865 2.393427,-0.07919 2.562725,0.167119 0.14487,0.210786 0.993705,0.681115 1.886136,1.045524 2.124468,0.867499 3.669258,0.8462 5.358124,-0.07458 1.704377,-0.92924 2.009203,-1.34264 1.555143,-2.10555 -0.295701,-0.496839 -0.777704,-0.566899 -2.853013,-0.417102 -2.382648,0.171982 -2.563859,0.127492 -3.948135,-0.965417 l -1.450694,-1.144966 -3.119496,0.455087 c -3.117834,0.455277 -3.119657,0.454877 -4.650834,-0.499283 -0.680406,-0.424003 -1.249165,-0.664171 -1.694138,-0.72303 z" />
      <path
         id="path4503"
         style="fill:#aa4400;fill-opacity:0.97166;stroke:#000000;stroke-width:1.71922;stroke-opacity:0"
         d="m 9.8547036,-111.16903 c -4.9256207,0.2026 -10.3963935,2.24779 -14.8325865,6.24275 -4.5518453,4.09915 -6.4575961,8.259818 -6.0969171,13.313512 0.240616,3.371459 1.3931547,5.188974 4.7767819,7.532053 3.4613805,2.396923 5.1300409,3.838306 5.1300409,4.43208 0,0.274752 -1.0745193,1.450537 -2.3876264,2.613119 -1.3130977,1.162576 -2.5020035,2.523811 -2.6418103,3.024699 -0.1398068,0.500892 -0.4004898,0.910862 -0.5790553,0.910862 -0.6828901,0 -5.1696568,8.663629 -6.8986788,13.320412 -1.868911,5.033561 -3.866026,12.617802 -4.726857,17.952065 -0.271182,1.680451 -0.496907,6.128532 -0.502255,9.884828 l -0.01,6.829739 1.498311,3.954208 c 2.601268,6.862671 6.353396,12.1457337 10.9996364,15.4894923 1.2377059,0.8907328 2.7448612,1.9755803 3.3491194,2.4107813 0.6042677,0.4352009 1.9527139,1.1959639 2.99739197,1.690516 1.04467806,0.4945521 2.70918203,1.33103229 3.69854203,1.85901489 0.9893693,0.527975 4.3953278,1.95496331 7.5691222,3.17109911 15.619028,5.9848997 36.630575,10.7794004 59.987712,13.6891774 6.147107,0.765792 15.300438,0.673216 20.94563,-0.212004 7.49185,-1.1748 14.773925,-3.665546 21.700535,-7.4222522 6.37475,-3.4573936 11.10118,-7.3682469 15.8563,-13.1215289 3.37145,-4.0791852 9.6475,-18.2266029 10.86063,-24.4820979 0.79176,-4.082753 0.79243,-15.125249 0.004,-19.17576 -0.32314,-1.65692 -1.40237,-5.328928 -2.39838,-8.160471 -1.8591,-5.285251 -2.1853,-7.250288 -1.31091,-7.890455 0.27482,-0.201207 2.02864,-0.64266 3.89744,-0.980611 6.01954,-1.088564 7.92674,-2.159875 10.01741,-5.62746 1.35495,-2.247324 1.37441,-2.342174 1.35086,-6.593562 -0.027,-4.889602 -0.71556,-7.183379 -3.0258,-10.076115 -1.61216,-2.018633 -5.64255,-4.488033 -9.14192,-5.601213 -2.09037,-0.664965 -3.4579,-0.83006 -6.99545,-0.842497 -3.91592,-0.01376 -4.6139,0.08298 -6.37569,0.883238 -1.08806,0.494245 -2.4944,1.483856 -3.12487,2.198773 -0.96614,1.095543 -1.17176,1.705838 -1.30939,3.88377 -0.0898,1.421256 -0.26866,2.737075 -0.39704,2.923875 -0.49014,0.713131 -2.14383,0.278415 -6.78195,-1.783052 -7.60614,-3.380026 -26.676988,-9.290942 -38.936184,-12.067026 -8.27833,-1.874621 -12.292627,-2.379411 -20.685287,-2.600691 -9.340805,-0.24627 -15.36884,0.21961 -24.399963,1.88526 -3.695907,0.681651 -7.028523,1.240498 -7.405539,1.242336 -1.184815,0.0059 -1.531376,-1.145269 -0.906978,-3.010896 0.429122,-1.282148 0.47062,-2.143138 0.172794,-3.561958 -1.17621,-5.60349 -6.60813,-8.38848 -12.9410665,-8.12801 z m 3.5833524,51.331477 c 1.497407,-0.02054 2.885197,0.894237 3.382135,2.55373 0.497599,1.661676 -0.215898,3.647559 -1.539009,4.2843 -0.443877,0.213614 -1.43198,0.388099 -2.196393,0.388099 -3.1727551,0 -4.667101,-4.002422 -2.291623,-6.138478 0.808131,-0.726693 1.746442,-1.075315 2.64489,-1.087651 z m 37.32413,11.899219 c 3.866462,2.58e-4 4.451903,0.09359 6.749694,1.071076 3.075976,1.308518 6.011239,3.930968 7.545307,6.741346 1.036328,1.898527 1.130272,2.404329 1.121242,6.02661 -0.0094,3.725112 -0.08228,4.080568 -1.268691,6.137099 -1.664806,2.885791 -5.342122,5.947548 -8.40083,6.994786 -4.401204,1.506882 -9.607647,1.162509 -13.509363,-0.893597 -2.331751,-1.228768 -5.278292,-4.20634 -6.52007,-6.588733 -0.938151,-1.799855 -1.071326,-2.501893 -1.071326,-5.649555 0,-3.15284 0.132231,-3.848963 1.077466,-5.662678 1.445329,-2.77331 4.654925,-5.755078 7.635162,-7.094229 2.222966,-0.998872 2.733828,-1.08239 6.641409,-1.082125 z m 54.795464,6.193037 c 0.77279,0.0031 1.5826,0.250178 2.32619,0.812799 1.0662,0.806734 1.27713,1.217324 1.27713,2.488818 0,1.119625 -0.23806,1.719704 -0.89929,2.265761 -1.98081,1.63579 -4.90823,1.168555 -5.87881,-0.938486 -1.12944,-2.451896 0.85643,-4.638265 3.17478,-4.628892 z" />
    </g>
  </g>
</svg>
